ISO-10303-21;
HEADER;
/* Generated by software containing ST-Developer
 * from STEP Tools, Inc. (www.steptools.com) 
 */

FILE_DESCRIPTION(
/* description */ (''),
/* implementation_level */ '2;1');

FILE_NAME(
/* name */ 'ESP32 GPS NTP Top Lid.step',
/* time_stamp */ '2026-08-11T14:09:55-04:00',
/* author */ (''),
/* organization */ (''),
/* preprocessor_version */ 'ST-DEVELOPER v20.1',
/* originating_system */ 'Autodesk Translation Framework v15.8.0.0',
/* authorisation */ '');

FILE_SCHEMA (('AUTOMOTIVE_DESIGN { 1 0 10303 214 3 1 1 }'));
ENDSEC;

DATA;
#10=MECHANICAL_DESIGN_GEOMETRIC_PRESENTATION_REPRESENTATION('',(#13),#623);
#11=SHAPE_REPRESENTATION_RELATIONSHIP('SRR','None',#630,#12);
#12=ADVANCED_BREP_SHAPE_REPRESENTATION('',(#367),#622);
#13=STYLED_ITEM('',(#639),#367);
#14=ORIENTED_CLOSED_SHELL('',*,#362,.F.);
#15=ORIENTED_CLOSED_SHELL('',*,#363,.F.);
#16=ORIENTED_CLOSED_SHELL('',*,#364,.F.);
#17=ORIENTED_CLOSED_SHELL('',*,#365,.F.);
#18=PLANE('',#384);
#19=PLANE('',#385);
#20=PLANE('',#389);
#21=PLANE('',#390);
#22=PLANE('',#391);
#23=PLANE('',#393);
#24=PLANE('',#399);
#25=PLANE('',#400);
#26=PLANE('',#401);
#27=PLANE('',#402);
#28=PLANE('',#403);
#29=PLANE('',#404);
#30=PLANE('',#405);
#31=PLANE('',#406);
#32=PLANE('',#407);
#33=PLANE('',#408);
#34=PLANE('',#409);
#35=PLANE('',#410);
#36=PLANE('',#411);
#37=PLANE('',#412);
#38=PLANE('',#413);
#39=PLANE('',#414);
#40=FACE_OUTER_BOUND('',#66,.T.);
#41=FACE_OUTER_BOUND('',#67,.T.);
#42=FACE_OUTER_BOUND('',#68,.T.);
#43=FACE_OUTER_BOUND('',#69,.T.);
#44=FACE_OUTER_BOUND('',#70,.T.);
#45=FACE_OUTER_BOUND('',#71,.T.);
#46=FACE_OUTER_BOUND('',#72,.T.);
#47=FACE_OUTER_BOUND('',#73,.T.);
#48=FACE_OUTER_BOUND('',#74,.T.);
#49=FACE_OUTER_BOUND('',#75,.T.);
#50=FACE_OUTER_BOUND('',#76,.T.);
#51=FACE_OUTER_BOUND('',#77,.T.);
#52=FACE_OUTER_BOUND('',#78,.T.);
#53=FACE_OUTER_BOUND('',#79,.T.);
#54=FACE_OUTER_BOUND('',#80,.T.);
#55=FACE_OUTER_BOUND('',#81,.T.);
#56=FACE_OUTER_BOUND('',#82,.T.);
#57=FACE_OUTER_BOUND('',#83,.T.);
#58=FACE_OUTER_BOUND('',#84,.T.);
#59=FACE_OUTER_BOUND('',#85,.T.);
#60=FACE_OUTER_BOUND('',#86,.T.);
#61=FACE_OUTER_BOUND('',#87,.T.);
#62=FACE_OUTER_BOUND('',#88,.T.);
#63=FACE_OUTER_BOUND('',#89,.T.);
#64=FACE_OUTER_BOUND('',#90,.T.);
#65=FACE_OUTER_BOUND('',#91,.T.);
#66=EDGE_LOOP('',(#244,#245,#246,#247));
#67=EDGE_LOOP('',(#248));
#68=EDGE_LOOP('',(#249));
#69=EDGE_LOOP('',(#250,#251,#252,#253));
#70=EDGE_LOOP('',(#254));
#71=EDGE_LOOP('',(#255));
#72=EDGE_LOOP('',(#256));
#73=EDGE_LOOP('',(#257));
#74=EDGE_LOOP('',(#258,#259,#260,#261));
#75=EDGE_LOOP('',(#262,#263,#264,#265));
#76=EDGE_LOOP('',(#266));
#77=EDGE_LOOP('',(#267));
#78=EDGE_LOOP('',(#268,#269,#270,#271));
#79=EDGE_LOOP('',(#272,#273,#274));
#80=EDGE_LOOP('',(#275,#276,#277));
#81=EDGE_LOOP('',(#278,#279,#280,#281));
#82=EDGE_LOOP('',(#282,#283,#284,#285));
#83=EDGE_LOOP('',(#286,#287,#288,#289));
#84=EDGE_LOOP('',(#290,#291,#292));
#85=EDGE_LOOP('',(#293,#294,#295));
#86=EDGE_LOOP('',(#296,#297,#298,#299));
#87=EDGE_LOOP('',(#300,#301,#302,#303));
#88=EDGE_LOOP('',(#304,#305,#306,#307,#308,#309,#310,#311));
#89=EDGE_LOOP('',(#312,#313,#314,#315));
#90=EDGE_LOOP('',(#316,#317,#318,#319));
#91=EDGE_LOOP('',(#320,#321,#322,#323,#324,#325,#326,#327,#328,#329,#330,
#331));
#92=LINE('',#526,#128);
#93=LINE('',#534,#129);
#94=LINE('',#545,#130);
#95=LINE('',#550,#131);
#96=LINE('',#557,#132);
#97=LINE('',#559,#133);
#98=LINE('',#561,#134);
#99=LINE('',#562,#135);
#100=LINE('',#565,#136);
#101=LINE('',#566,#137);
#102=LINE('',#569,#138);
#103=LINE('',#570,#139);
#104=LINE('',#573,#140);
#105=LINE('',#575,#141);
#106=LINE('',#576,#142);
#107=LINE('',#579,#143);
#108=LINE('',#581,#144);
#109=LINE('',#582,#145);
#110=LINE('',#586,#146);
#111=LINE('',#588,#147);
#112=LINE('',#590,#148);
#113=LINE('',#591,#149);
#114=LINE('',#594,#150);
#115=LINE('',#595,#151);
#116=LINE('',#598,#152);
#117=LINE('',#599,#153);
#118=LINE('',#602,#154);
#119=LINE('',#604,#155);
#120=LINE('',#605,#156);
#121=LINE('',#608,#157);
#122=LINE('',#610,#158);
#123=LINE('',#611,#159);
#124=LINE('',#613,#160);
#125=LINE('',#614,#161);
#126=LINE('',#616,#162);
#127=LINE('',#618,#163);
#128=VECTOR('',#421,3.1);
#129=VECTOR('',#432,3.1);
#130=VECTOR('',#449,3.1);
#131=VECTOR('',#454,3.1);
#132=VECTOR('',#463,10.);
#133=VECTOR('',#464,10.);
#134=VECTOR('',#465,10.);
#135=VECTOR('',#466,10.);
#136=VECTOR('',#469,10.);
#137=VECTOR('',#470,10.);
#138=VECTOR('',#473,10.);
#139=VECTOR('',#474,10.);
#140=VECTOR('',#477,10.);
#141=VECTOR('',#478,10.);
#142=VECTOR('',#479,10.);
#143=VECTOR('',#482,10.);
#144=VECTOR('',#483,10.);
#145=VECTOR('',#484,10.);
#146=VECTOR('',#487,10.);
#147=VECTOR('',#488,10.);
#148=VECTOR('',#489,10.);
#149=VECTOR('',#490,10.);
#150=VECTOR('',#493,10.);
#151=VECTOR('',#494,10.);
#152=VECTOR('',#497,10.);
#153=VECTOR('',#498,10.);
#154=VECTOR('',#501,10.);
#155=VECTOR('',#502,10.);
#156=VECTOR('',#503,10.);
#157=VECTOR('',#506,10.);
#158=VECTOR('',#507,10.);
#159=VECTOR('',#508,10.);
#160=VECTOR('',#511,10.);
#161=VECTOR('',#512,10.);
#162=VECTOR('',#515,10.);
#163=VECTOR('',#518,10.);
#164=CIRCLE('',#382,3.1);
#165=CIRCLE('',#383,3.1);
#166=CIRCLE('',#387,3.1);
#167=CIRCLE('',#388,3.1);
#168=CIRCLE('',#392,3.1);
#169=CIRCLE('',#394,3.1);
#170=CIRCLE('',#397,3.1);
#171=CIRCLE('',#398,3.1);
#172=VERTEX_POINT('',#523);
#173=VERTEX_POINT('',#525);
#174=VERTEX_POINT('',#531);
#175=VERTEX_POINT('',#533);
#176=VERTEX_POINT('',#539);
#177=VERTEX_POINT('',#542);
#178=VERTEX_POINT('',#547);
#179=VERTEX_POINT('',#549);
#180=VERTEX_POINT('',#555);
#181=VERTEX_POINT('',#556);
#182=VERTEX_POINT('',#558);
#183=VERTEX_POINT('',#560);
#184=VERTEX_POINT('',#564);
#185=VERTEX_POINT('',#568);
#186=VERTEX_POINT('',#572);
#187=VERTEX_POINT('',#574);
#188=VERTEX_POINT('',#578);
#189=VERTEX_POINT('',#580);
#190=VERTEX_POINT('',#584);
#191=VERTEX_POINT('',#585);
#192=VERTEX_POINT('',#587);
#193=VERTEX_POINT('',#589);
#194=VERTEX_POINT('',#593);
#195=VERTEX_POINT('',#597);
#196=VERTEX_POINT('',#601);
#197=VERTEX_POINT('',#603);
#198=VERTEX_POINT('',#607);
#199=VERTEX_POINT('',#609);
#200=EDGE_CURVE('',#172,#172,#164,.T.);
#201=EDGE_CURVE('',#172,#173,#92,.T.);
#202=EDGE_CURVE('',#173,#173,#165,.T.);
#203=EDGE_CURVE('',#174,#174,#166,.T.);
#204=EDGE_CURVE('',#174,#175,#93,.T.);
#205=EDGE_CURVE('',#175,#175,#167,.T.);
#206=EDGE_CURVE('',#176,#176,#168,.T.);
#207=EDGE_CURVE('',#177,#177,#169,.T.);
#208=EDGE_CURVE('',#176,#177,#94,.T.);
#209=EDGE_CURVE('',#178,#178,#170,.T.);
#210=EDGE_CURVE('',#178,#179,#95,.T.);
#211=EDGE_CURVE('',#179,#179,#171,.T.);
#212=EDGE_CURVE('',#180,#181,#96,.T.);
#213=EDGE_CURVE('',#181,#182,#97,.T.);
#214=EDGE_CURVE('',#183,#182,#98,.T.);
#215=EDGE_CURVE('',#183,#180,#99,.T.);
#216=EDGE_CURVE('',#184,#180,#100,.T.);
#217=EDGE_CURVE('',#181,#184,#101,.T.);
#218=EDGE_CURVE('',#182,#185,#102,.T.);
#219=EDGE_CURVE('',#183,#185,#103,.T.);
#220=EDGE_CURVE('',#180,#186,#104,.T.);
#221=EDGE_CURVE('',#186,#187,#105,.T.);
#222=EDGE_CURVE('',#184,#187,#106,.T.);
#223=EDGE_CURVE('',#188,#185,#107,.T.);
#224=EDGE_CURVE('',#189,#188,#108,.T.);
#225=EDGE_CURVE('',#189,#183,#109,.T.);
#226=EDGE_CURVE('',#190,#191,#110,.T.);
#227=EDGE_CURVE('',#190,#192,#111,.T.);
#228=EDGE_CURVE('',#193,#192,#112,.T.);
#229=EDGE_CURVE('',#191,#193,#113,.T.);
#230=EDGE_CURVE('',#191,#194,#114,.T.);
#231=EDGE_CURVE('',#190,#194,#115,.T.);
#232=EDGE_CURVE('',#195,#192,#116,.T.);
#233=EDGE_CURVE('',#195,#193,#117,.T.);
#234=EDGE_CURVE('',#196,#194,#118,.T.);
#235=EDGE_CURVE('',#197,#196,#119,.T.);
#236=EDGE_CURVE('',#197,#190,#120,.T.);
#237=EDGE_CURVE('',#192,#198,#121,.T.);
#238=EDGE_CURVE('',#198,#199,#122,.T.);
#239=EDGE_CURVE('',#195,#199,#123,.T.);
#240=EDGE_CURVE('',#186,#197,#124,.T.);
#241=EDGE_CURVE('',#198,#189,#125,.T.);
#242=EDGE_CURVE('',#187,#196,#126,.T.);
#243=EDGE_CURVE('',#199,#188,#127,.T.);
#244=ORIENTED_EDGE('',*,*,#200,.F.);
#245=ORIENTED_EDGE('',*,*,#201,.T.);
#246=ORIENTED_EDGE('',*,*,#202,.T.);
#247=ORIENTED_EDGE('',*,*,#201,.F.);
#248=ORIENTED_EDGE('',*,*,#202,.F.);
#249=ORIENTED_EDGE('',*,*,#200,.T.);
#250=ORIENTED_EDGE('',*,*,#203,.F.);
#251=ORIENTED_EDGE('',*,*,#204,.T.);
#252=ORIENTED_EDGE('',*,*,#205,.T.);
#253=ORIENTED_EDGE('',*,*,#204,.F.);
#254=ORIENTED_EDGE('',*,*,#205,.F.);
#255=ORIENTED_EDGE('',*,*,#203,.T.);
#256=ORIENTED_EDGE('',*,*,#206,.T.);
#257=ORIENTED_EDGE('',*,*,#207,.F.);
#258=ORIENTED_EDGE('',*,*,#206,.F.);
#259=ORIENTED_EDGE('',*,*,#208,.T.);
#260=ORIENTED_EDGE('',*,*,#207,.T.);
#261=ORIENTED_EDGE('',*,*,#208,.F.);
#262=ORIENTED_EDGE('',*,*,#209,.F.);
#263=ORIENTED_EDGE('',*,*,#210,.T.);
#264=ORIENTED_EDGE('',*,*,#211,.T.);
#265=ORIENTED_EDGE('',*,*,#210,.F.);
#266=ORIENTED_EDGE('',*,*,#211,.F.);
#267=ORIENTED_EDGE('',*,*,#209,.T.);
#268=ORIENTED_EDGE('',*,*,#212,.T.);
#269=ORIENTED_EDGE('',*,*,#213,.T.);
#270=ORIENTED_EDGE('',*,*,#214,.F.);
#271=ORIENTED_EDGE('',*,*,#215,.T.);
#272=ORIENTED_EDGE('',*,*,#212,.F.);
#273=ORIENTED_EDGE('',*,*,#216,.F.);
#274=ORIENTED_EDGE('',*,*,#217,.F.);
#275=ORIENTED_EDGE('',*,*,#214,.T.);
#276=ORIENTED_EDGE('',*,*,#218,.T.);
#277=ORIENTED_EDGE('',*,*,#219,.F.);
#278=ORIENTED_EDGE('',*,*,#216,.T.);
#279=ORIENTED_EDGE('',*,*,#220,.T.);
#280=ORIENTED_EDGE('',*,*,#221,.T.);
#281=ORIENTED_EDGE('',*,*,#222,.F.);
#282=ORIENTED_EDGE('',*,*,#219,.T.);
#283=ORIENTED_EDGE('',*,*,#223,.F.);
#284=ORIENTED_EDGE('',*,*,#224,.F.);
#285=ORIENTED_EDGE('',*,*,#225,.T.);
#286=ORIENTED_EDGE('',*,*,#226,.F.);
#287=ORIENTED_EDGE('',*,*,#227,.T.);
#288=ORIENTED_EDGE('',*,*,#228,.F.);
#289=ORIENTED_EDGE('',*,*,#229,.F.);
#290=ORIENTED_EDGE('',*,*,#226,.T.);
#291=ORIENTED_EDGE('',*,*,#230,.T.);
#292=ORIENTED_EDGE('',*,*,#231,.F.);
#293=ORIENTED_EDGE('',*,*,#228,.T.);
#294=ORIENTED_EDGE('',*,*,#232,.F.);
#295=ORIENTED_EDGE('',*,*,#233,.T.);
#296=ORIENTED_EDGE('',*,*,#231,.T.);
#297=ORIENTED_EDGE('',*,*,#234,.F.);
#298=ORIENTED_EDGE('',*,*,#235,.F.);
#299=ORIENTED_EDGE('',*,*,#236,.T.);
#300=ORIENTED_EDGE('',*,*,#232,.T.);
#301=ORIENTED_EDGE('',*,*,#237,.T.);
#302=ORIENTED_EDGE('',*,*,#238,.T.);
#303=ORIENTED_EDGE('',*,*,#239,.F.);
#304=ORIENTED_EDGE('',*,*,#240,.F.);
#305=ORIENTED_EDGE('',*,*,#220,.F.);
#306=ORIENTED_EDGE('',*,*,#215,.F.);
#307=ORIENTED_EDGE('',*,*,#225,.F.);
#308=ORIENTED_EDGE('',*,*,#241,.F.);
#309=ORIENTED_EDGE('',*,*,#237,.F.);
#310=ORIENTED_EDGE('',*,*,#227,.F.);
#311=ORIENTED_EDGE('',*,*,#236,.F.);
#312=ORIENTED_EDGE('',*,*,#221,.F.);
#313=ORIENTED_EDGE('',*,*,#240,.T.);
#314=ORIENTED_EDGE('',*,*,#235,.T.);
#315=ORIENTED_EDGE('',*,*,#242,.F.);
#316=ORIENTED_EDGE('',*,*,#238,.F.);
#317=ORIENTED_EDGE('',*,*,#241,.T.);
#318=ORIENTED_EDGE('',*,*,#224,.T.);
#319=ORIENTED_EDGE('',*,*,#243,.F.);
#320=ORIENTED_EDGE('',*,*,#242,.T.);
#321=ORIENTED_EDGE('',*,*,#234,.T.);
#322=ORIENTED_EDGE('',*,*,#230,.F.);
#323=ORIENTED_EDGE('',*,*,#229,.T.);
#324=ORIENTED_EDGE('',*,*,#233,.F.);
#325=ORIENTED_EDGE('',*,*,#239,.T.);
#326=ORIENTED_EDGE('',*,*,#243,.T.);
#327=ORIENTED_EDGE('',*,*,#223,.T.);
#328=ORIENTED_EDGE('',*,*,#218,.F.);
#329=ORIENTED_EDGE('',*,*,#213,.F.);
#330=ORIENTED_EDGE('',*,*,#217,.T.);
#331=ORIENTED_EDGE('',*,*,#222,.T.);
#332=CYLINDRICAL_SURFACE('',#381,3.1);
#333=CYLINDRICAL_SURFACE('',#386,3.1);
#334=CYLINDRICAL_SURFACE('',#395,3.1);
#335=CYLINDRICAL_SURFACE('',#396,3.1);
#336=ADVANCED_FACE('',(#40),#332,.F.);
#337=ADVANCED_FACE('',(#41),#18,.T.);
#338=ADVANCED_FACE('',(#42),#19,.F.);
#339=ADVANCED_FACE('',(#43),#333,.F.);
#340=ADVANCED_FACE('',(#44),#20,.T.);
#341=ADVANCED_FACE('',(#45),#21,.F.);
#342=ADVANCED_FACE('',(#46),#22,.F.);
#343=ADVANCED_FACE('',(#47),#23,.T.);
#344=ADVANCED_FACE('',(#48),#334,.F.);
#345=ADVANCED_FACE('',(#49),#335,.F.);
#346=ADVANCED_FACE('',(#50),#24,.T.);
#347=ADVANCED_FACE('',(#51),#25,.F.);
#348=ADVANCED_FACE('',(#52),#26,.T.);
#349=ADVANCED_FACE('',(#53),#27,.T.);
#350=ADVANCED_FACE('',(#54),#28,.T.);
#351=ADVANCED_FACE('',(#55),#29,.T.);
#352=ADVANCED_FACE('',(#56),#30,.T.);
#353=ADVANCED_FACE('',(#57),#31,.T.);
#354=ADVANCED_FACE('',(#58),#32,.T.);
#355=ADVANCED_FACE('',(#59),#33,.T.);
#356=ADVANCED_FACE('',(#60),#34,.T.);
#357=ADVANCED_FACE('',(#61),#35,.T.);
#358=ADVANCED_FACE('',(#62),#36,.F.);
#359=ADVANCED_FACE('',(#63),#37,.T.);
#360=ADVANCED_FACE('',(#64),#38,.T.);
#361=ADVANCED_FACE('',(#65),#39,.T.);
#362=CLOSED_SHELL('',(#336,#337,#338));
#363=CLOSED_SHELL('',(#339,#340,#341));
#364=CLOSED_SHELL('',(#342,#343,#344));
#365=CLOSED_SHELL('',(#345,#346,#347));
#366=CLOSED_SHELL('',(#348,#349,#350,#351,#352,#353,#354,#355,#356,#357,
#358,#359,#360,#361));
#367=BREP_WITH_VOIDS('Case Lid (1)',#366,(#14,#15,#16,#17));
#368=DERIVED_UNIT_ELEMENT(#370,1.);
#369=DERIVED_UNIT_ELEMENT(#625,-3.);
#370=(
MASS_UNIT()
NAMED_UNIT(*)
SI_UNIT(.KILO.,.GRAM.)
);
#371=DERIVED_UNIT((#368,#369));
#372=MEASURE_REPRESENTATION_ITEM('density measure',
POSITIVE_RATIO_MEASURE(7850.),#371);
#373=PROPERTY_DEFINITION_REPRESENTATION(#378,#375);
#374=PROPERTY_DEFINITION_REPRESENTATION(#379,#376);
#375=REPRESENTATION('material name',(#377),#622);
#376=REPRESENTATION('density',(#372),#622);
#377=DESCRIPTIVE_REPRESENTATION_ITEM('Steel','Steel');
#378=PROPERTY_DEFINITION('material property','material name',#632);
#379=PROPERTY_DEFINITION('material property','density of part',#632);
#380=AXIS2_PLACEMENT_3D('',#521,#415,#416);
#381=AXIS2_PLACEMENT_3D('',#522,#417,#418);
#382=AXIS2_PLACEMENT_3D('',#524,#419,#420);
#383=AXIS2_PLACEMENT_3D('',#527,#422,#423);
#384=AXIS2_PLACEMENT_3D('',#528,#424,#425);
#385=AXIS2_PLACEMENT_3D('',#529,#426,#427);
#386=AXIS2_PLACEMENT_3D('',#530,#428,#429);
#387=AXIS2_PLACEMENT_3D('',#532,#430,#431);
#388=AXIS2_PLACEMENT_3D('',#535,#433,#434);
#389=AXIS2_PLACEMENT_3D('',#536,#435,#436);
#390=AXIS2_PLACEMENT_3D('',#537,#437,#438);
#391=AXIS2_PLACEMENT_3D('',#538,#439,#440);
#392=AXIS2_PLACEMENT_3D('',#540,#441,#442);
#393=AXIS2_PLACEMENT_3D('',#541,#443,#444);
#394=AXIS2_PLACEMENT_3D('',#543,#445,#446);
#395=AXIS2_PLACEMENT_3D('',#544,#447,#448);
#396=AXIS2_PLACEMENT_3D('',#546,#450,#451);
#397=AXIS2_PLACEMENT_3D('',#548,#452,#453);
#398=AXIS2_PLACEMENT_3D('',#551,#455,#456);
#399=AXIS2_PLACEMENT_3D('',#552,#457,#458);
#400=AXIS2_PLACEMENT_3D('',#553,#459,#460);
#401=AXIS2_PLACEMENT_3D('',#554,#461,#462);
#402=AXIS2_PLACEMENT_3D('',#563,#467,#468);
#403=AXIS2_PLACEMENT_3D('',#567,#471,#472);
#404=AXIS2_PLACEMENT_3D('',#571,#475,#476);
#405=AXIS2_PLACEMENT_3D('',#577,#480,#481);
#406=AXIS2_PLACEMENT_3D('',#583,#485,#486);
#407=AXIS2_PLACEMENT_3D('',#592,#491,#492);
#408=AXIS2_PLACEMENT_3D('',#596,#495,#496);
#409=AXIS2_PLACEMENT_3D('',#600,#499,#500);
#410=AXIS2_PLACEMENT_3D('',#606,#504,#505);
#411=AXIS2_PLACEMENT_3D('',#612,#509,#510);
#412=AXIS2_PLACEMENT_3D('',#615,#513,#514);
#413=AXIS2_PLACEMENT_3D('',#617,#516,#517);
#414=AXIS2_PLACEMENT_3D('',#619,#519,#520);
#415=DIRECTION('axis',(0.,0.,1.));
#416=DIRECTION('refdir',(1.,0.,0.));
#417=DIRECTION('center_axis',(0.,0.,1.));
#418=DIRECTION('ref_axis',(-1.,0.,0.));
#419=DIRECTION('center_axis',(0.,0.,1.));
#420=DIRECTION('ref_axis',(-1.,0.,0.));
#421=DIRECTION('',(0.,0.,1.));
#422=DIRECTION('center_axis',(0.,0.,1.));
#423=DIRECTION('ref_axis',(-1.,0.,0.));
#424=DIRECTION('center_axis',(0.,0.,-1.));
#425=DIRECTION('ref_axis',(-1.,0.,0.));
#426=DIRECTION('center_axis',(0.,0.,-1.));
#427=DIRECTION('ref_axis',(-1.,0.,0.));
#428=DIRECTION('center_axis',(0.,0.,1.));
#429=DIRECTION('ref_axis',(-1.,0.,0.));
#430=DIRECTION('center_axis',(0.,0.,1.));
#431=DIRECTION('ref_axis',(-1.,0.,0.));
#432=DIRECTION('',(0.,0.,1.));
#433=DIRECTION('center_axis',(0.,0.,1.));
#434=DIRECTION('ref_axis',(-1.,0.,0.));
#435=DIRECTION('center_axis',(0.,0.,-1.));
#436=DIRECTION('ref_axis',(-1.,0.,0.));
#437=DIRECTION('center_axis',(0.,0.,-1.));
#438=DIRECTION('ref_axis',(-1.,0.,0.));
#439=DIRECTION('center_axis',(0.,0.,-1.));
#440=DIRECTION('ref_axis',(-1.,0.,0.));
#441=DIRECTION('center_axis',(0.,0.,1.));
#442=DIRECTION('ref_axis',(-1.,0.,0.));
#443=DIRECTION('center_axis',(0.,0.,-1.));
#444=DIRECTION('ref_axis',(-1.,0.,0.));
#445=DIRECTION('center_axis',(0.,0.,1.));
#446=DIRECTION('ref_axis',(-1.,0.,0.));
#447=DIRECTION('center_axis',(0.,0.,1.));
#448=DIRECTION('ref_axis',(-1.,0.,0.));
#449=DIRECTION('',(0.,0.,1.));
#450=DIRECTION('center_axis',(0.,0.,1.));
#451=DIRECTION('ref_axis',(-1.,0.,0.));
#452=DIRECTION('center_axis',(0.,0.,1.));
#453=DIRECTION('ref_axis',(-1.,0.,0.));
#454=DIRECTION('',(0.,0.,1.));
#455=DIRECTION('center_axis',(0.,0.,1.));
#456=DIRECTION('ref_axis',(-1.,0.,0.));
#457=DIRECTION('center_axis',(0.,0.,-1.));
#458=DIRECTION('ref_axis',(-1.,0.,0.));
#459=DIRECTION('center_axis',(0.,0.,-1.));
#460=DIRECTION('ref_axis',(-1.,0.,0.));
#461=DIRECTION('center_axis',(0.707106781186547,0.,-0.707106781186548));
#462=DIRECTION('ref_axis',(0.707106781186548,0.,0.707106781186547));
#463=DIRECTION('',(0.707106781186548,0.,0.707106781186547));
#464=DIRECTION('',(0.,-1.,0.));
#465=DIRECTION('',(0.707106781186548,0.,0.707106781186547));
#466=DIRECTION('',(0.,1.,0.));
#467=DIRECTION('center_axis',(0.,1.,0.));
#468=DIRECTION('ref_axis',(-1.,0.,0.));
#469=DIRECTION('',(0.,0.,-1.));
#470=DIRECTION('',(-1.,0.,0.));
#471=DIRECTION('center_axis',(0.,-1.,0.));
#472=DIRECTION('ref_axis',(0.,0.,-1.));
#473=DIRECTION('',(-1.,0.,0.));
#474=DIRECTION('',(0.,0.,1.));
#475=DIRECTION('center_axis',(1.,0.,0.));
#476=DIRECTION('ref_axis',(0.,1.,0.));
#477=DIRECTION('',(0.,1.,0.));
#478=DIRECTION('',(0.,0.,1.));
#479=DIRECTION('',(0.,1.,0.));
#480=DIRECTION('center_axis',(1.,0.,0.));
#481=DIRECTION('ref_axis',(0.,1.,0.));
#482=DIRECTION('',(0.,1.,0.));
#483=DIRECTION('',(0.,0.,1.));
#484=DIRECTION('',(0.,1.,0.));
#485=DIRECTION('center_axis',(-0.707106781186548,0.,-0.707106781186548));
#486=DIRECTION('ref_axis',(0.707106781186548,0.,-0.707106781186548));
#487=DIRECTION('',(-0.707106781186547,0.,0.707106781186547));
#488=DIRECTION('',(0.,-1.,0.));
#489=DIRECTION('',(0.707106781186547,0.,-0.707106781186547));
#490=DIRECTION('',(0.,-1.,0.));
#491=DIRECTION('center_axis',(0.,1.,0.));
#492=DIRECTION('ref_axis',(-1.,0.,0.));
#493=DIRECTION('',(1.,0.,0.));
#494=DIRECTION('',(0.,0.,1.));
#495=DIRECTION('center_axis',(0.,-1.,0.));
#496=DIRECTION('ref_axis',(0.,0.,-1.));
#497=DIRECTION('',(0.,0.,-1.));
#498=DIRECTION('',(-1.,0.,0.));
#499=DIRECTION('center_axis',(-1.,0.,0.));
#500=DIRECTION('ref_axis',(0.,-1.,0.));
#501=DIRECTION('',(0.,-1.,0.));
#502=DIRECTION('',(0.,0.,1.));
#503=DIRECTION('',(0.,-1.,0.));
#504=DIRECTION('center_axis',(-1.,0.,0.));
#505=DIRECTION('ref_axis',(0.,-1.,0.));
#506=DIRECTION('',(0.,-1.,0.));
#507=DIRECTION('',(0.,0.,1.));
#508=DIRECTION('',(0.,-1.,0.));
#509=DIRECTION('center_axis',(0.,0.,1.));
#510=DIRECTION('ref_axis',(1.,0.,0.));
#511=DIRECTION('',(-1.,0.,0.));
#512=DIRECTION('',(1.,0.,0.));
#513=DIRECTION('center_axis',(0.,1.,0.));
#514=DIRECTION('ref_axis',(-1.,0.,0.));
#515=DIRECTION('',(-1.,0.,0.));
#516=DIRECTION('center_axis',(0.,-1.,0.));
#517=DIRECTION('ref_axis',(1.,0.,0.));
#518=DIRECTION('',(1.,0.,0.));
#519=DIRECTION('center_axis',(0.,0.,1.));
#520=DIRECTION('ref_axis',(1.,0.,0.));
#521=CARTESIAN_POINT('',(0.,0.,0.));
#522=CARTESIAN_POINT('Origin',(66.500001847744,72.400000551343,54.6000002831221));
#523=CARTESIAN_POINT('',(69.600001847744,72.400000551343,54.6000002831221));
#524=CARTESIAN_POINT('Origin',(66.500001847744,72.400000551343,54.6000002831221));
#525=CARTESIAN_POINT('',(69.600001847744,72.400000551343,56.8000002831221));
#526=CARTESIAN_POINT('',(69.600001847744,72.400000551343,54.6000002831221));
#527=CARTESIAN_POINT('Origin',(66.500001847744,72.400000551343,56.8000002831221));
#528=CARTESIAN_POINT('Origin',(35.7500008940697,17.9000000372529,56.8000002831221));
#529=CARTESIAN_POINT('Origin',(35.7500008940697,17.9000000372529,54.6000002831221));
#530=CARTESIAN_POINT('Origin',(4.99999994039536,-36.6000005215407,54.6000002831221));
#531=CARTESIAN_POINT('',(8.09999994039536,-36.6000005215407,54.6000002831221));
#532=CARTESIAN_POINT('Origin',(4.99999994039536,-36.6000005215407,54.6000002831221));
#533=CARTESIAN_POINT('',(8.09999994039536,-36.6000005215407,56.8000002831221));
#534=CARTESIAN_POINT('',(8.09999994039536,-36.6000005215407,54.6000002831221));
#535=CARTESIAN_POINT('Origin',(4.99999994039536,-36.6000005215407,56.8000002831221));
#536=CARTESIAN_POINT('Origin',(35.7500008940697,17.9000000372529,56.8000002831221));
#537=CARTESIAN_POINT('Origin',(35.7500008940697,17.9000000372529,54.6000002831221));
#538=CARTESIAN_POINT('Origin',(35.7500008940697,17.9000000372529,54.6000002831221));
#539=CARTESIAN_POINT('',(8.09999997019768,72.4000005960465,54.6000002831221));
#540=CARTESIAN_POINT('Origin',(4.99999997019768,72.4000005960465,54.6000002831221));
#541=CARTESIAN_POINT('Origin',(35.7500008940697,17.9000000372529,56.8000002831221));
#542=CARTESIAN_POINT('',(8.09999997019768,72.4000005960465,56.8000002831221));
#543=CARTESIAN_POINT('Origin',(4.99999997019768,72.4000005960465,56.8000002831221));
#544=CARTESIAN_POINT('Origin',(4.99999997019768,72.4000005960465,54.6000002831221));
#545=CARTESIAN_POINT('',(8.09999997019768,72.4000005960465,54.6000002831221));
#546=CARTESIAN_POINT('Origin',(66.500001847744,-36.6000005215407,54.6000002831221));
#547=CARTESIAN_POINT('',(69.600001847744,-36.6000005215407,54.6000002831221));
#548=CARTESIAN_POINT('Origin',(66.500001847744,-36.6000005215407,54.6000002831221));
#549=CARTESIAN_POINT('',(69.600001847744,-36.6000005215407,56.8000002831221));
#550=CARTESIAN_POINT('',(69.600001847744,-36.6000005215407,54.6000002831221));
#551=CARTESIAN_POINT('Origin',(66.500001847744,-36.6000005215407,56.8000002831221));
#552=CARTESIAN_POINT('Origin',(35.7500008940697,17.9000000372529,56.8000002831221));
#553=CARTESIAN_POINT('Origin',(35.7500008940697,17.9000000372529,54.6000002831221));
#554=CARTESIAN_POINT('Origin',(71.500001847744,37.4000005960465,54.1000002831221));
#555=CARTESIAN_POINT('',(71.500001847744,37.4000005960465,54.1000002831221));
#556=CARTESIAN_POINT('',(76.400001847744,37.4000005960465,59.0000002831221));
#557=CARTESIAN_POINT('',(71.500001847744,37.4000005960465,54.1000002831221));
#558=CARTESIAN_POINT('',(76.400001847744,-1.59999940395355,59.0000002831221));
#559=CARTESIAN_POINT('',(76.400001847744,37.4000005960465,59.0000002831221));
#560=CARTESIAN_POINT('',(71.500001847744,-1.59999940395355,54.1000002831221));
#561=CARTESIAN_POINT('',(71.500001847744,-1.59999940395355,54.1000002831221));
#562=CARTESIAN_POINT('',(71.500001847744,-41.6000005215407,54.1000002831221));
#563=CARTESIAN_POINT('Origin',(73.950001847744,37.4000005960465,56.5500002831221));
#564=CARTESIAN_POINT('',(71.500001847744,37.4000005960465,59.0000002831221));
#565=CARTESIAN_POINT('',(71.500001847744,37.4000005960465,55.3250002831221));
#566=CARTESIAN_POINT('',(76.400001847744,37.4000005960465,59.0000002831221));
#567=CARTESIAN_POINT('Origin',(73.950001847744,-1.59999940395355,56.5500002831221));
#568=CARTESIAN_POINT('',(71.500001847744,-1.59999940395355,59.0000002831221));
#569=CARTESIAN_POINT('',(76.400001847744,-1.59999940395355,59.0000002831221));
#570=CARTESIAN_POINT('',(71.500001847744,-1.59999940395355,55.3250002831221));
#571=CARTESIAN_POINT('Origin',(71.500001847744,-41.6000005215407,54.1000002831221));
#572=CARTESIAN_POINT('',(71.500001847744,77.4000005960465,54.1000002831221));
#573=CARTESIAN_POINT('',(71.500001847744,-41.6000005215407,54.1000002831221));
#574=CARTESIAN_POINT('',(71.500001847744,77.4000005960465,59.0000002831221));
#575=CARTESIAN_POINT('',(71.500001847744,77.4000005960465,54.1000002831221));
#576=CARTESIAN_POINT('',(71.500001847744,-41.6000005215407,59.0000002831221));
#577=CARTESIAN_POINT('Origin',(71.500001847744,-41.6000005215407,54.1000002831221));
#578=CARTESIAN_POINT('',(71.500001847744,-41.6000005215407,59.0000002831221));
#579=CARTESIAN_POINT('',(71.500001847744,-41.6000005215407,59.0000002831221));
#580=CARTESIAN_POINT('',(71.500001847744,-41.6000005215407,54.1000002831221));
#581=CARTESIAN_POINT('',(71.500001847744,-41.6000005215407,54.1000002831221));
#582=CARTESIAN_POINT('',(71.500001847744,-41.6000005215407,54.1000002831221));
#583=CARTESIAN_POINT('Origin',(-4.90000005960464,37.4000005960465,59.0000002831221));
#584=CARTESIAN_POINT('',(-5.96046412226769E-8,37.4000005960465,54.1000002831221));
#585=CARTESIAN_POINT('',(-4.90000005960464,37.4000005960465,59.0000002831221));
#586=CARTESIAN_POINT('',(-5.96046412226769E-8,37.4000005960465,54.1000002831221));
#587=CARTESIAN_POINT('',(-5.96046412226769E-8,-1.59999940395355,54.1000002831221));
#588=CARTESIAN_POINT('',(-5.96046406675657E-8,77.4000005960465,54.1000002831221));
#589=CARTESIAN_POINT('',(-4.90000005960464,-1.59999940395355,59.0000002831221));
#590=CARTESIAN_POINT('',(-5.96046412226769E-8,-1.59999940395355,54.1000002831221));
#591=CARTESIAN_POINT('',(-4.90000005960464,37.4000005960465,59.0000002831221));
#592=CARTESIAN_POINT('Origin',(-2.45000005960464,37.4000005960465,56.5500002831221));
#593=CARTESIAN_POINT('',(-5.96046412226769E-8,37.4000005960465,59.0000002831221));
#594=CARTESIAN_POINT('',(-4.90000005960464,37.4000005960465,59.0000002831221));
#595=CARTESIAN_POINT('',(-5.96046406675654E-8,37.4000005960465,55.3250002831221));
#596=CARTESIAN_POINT('Origin',(-2.45000005960464,-1.59999940395355,56.5500002831221));
#597=CARTESIAN_POINT('',(-5.96046412226769E-8,-1.59999940395355,59.0000002831221));
#598=CARTESIAN_POINT('',(-5.96046406675654E-8,-1.59999940395355,55.3250002831221));
#599=CARTESIAN_POINT('',(-4.90000005960464,-1.59999940395355,59.0000002831221));
#600=CARTESIAN_POINT('Origin',(-5.96046406675657E-8,77.4000005960465,54.1000002831221));
#601=CARTESIAN_POINT('',(-5.96046412226769E-8,77.4000005960465,59.0000002831221));
#602=CARTESIAN_POINT('',(-5.96046406675657E-8,77.4000005960465,59.0000002831221));
#603=CARTESIAN_POINT('',(-5.96046412226769E-8,77.4000005960465,54.1000002831221));
#604=CARTESIAN_POINT('',(-5.96046412226769E-8,77.4000005960465,54.1000002831221));
#605=CARTESIAN_POINT('',(-5.96046406675657E-8,77.4000005960465,54.1000002831221));
#606=CARTESIAN_POINT('Origin',(-5.96046406675657E-8,77.4000005960465,54.1000002831221));
#607=CARTESIAN_POINT('',(-5.96046406675654E-8,-41.6000005215407,54.1000002831221));
#608=CARTESIAN_POINT('',(-5.96046406675657E-8,77.4000005960465,54.1000002831221));
#609=CARTESIAN_POINT('',(-5.96046406675654E-8,-41.6000005215407,59.0000002831221));
#610=CARTESIAN_POINT('',(-5.96046406675654E-8,-41.6000005215407,54.0000002831221));
#611=CARTESIAN_POINT('',(-5.96046406675657E-8,77.4000005960465,59.0000002831221));
#612=CARTESIAN_POINT('Origin',(35.7500008940697,17.9000000372529,54.1000002831221));
#613=CARTESIAN_POINT('',(71.500001847744,77.4000005960465,54.1000002831221));
#614=CARTESIAN_POINT('',(-5.96046406675657E-8,-41.6000005215407,54.1000002831221));
#615=CARTESIAN_POINT('Origin',(71.500001847744,77.4000005960465,54.1000002831221));
#616=CARTESIAN_POINT('',(71.500001847744,77.4000005960465,59.0000002831221));
#617=CARTESIAN_POINT('Origin',(-5.96046406675657E-8,-41.6000005215407,54.1000002831221));
#618=CARTESIAN_POINT('',(-5.96046406675657E-8,-41.6000005215407,59.0000002831221));
#619=CARTESIAN_POINT('Origin',(35.7500008940697,17.9000000372529,59.0000002831221));
#620=UNCERTAINTY_MEASURE_WITH_UNIT(LENGTH_MEASURE(0.01),#624,
'DISTANCE_ACCURACY_VALUE',
'Maximum model space distance between geometric entities at asserted c
onnectivities');
#621=UNCERTAINTY_MEASURE_WITH_UNIT(LENGTH_MEASURE(0.01),#624,
'DISTANCE_ACCURACY_VALUE',
'Maximum model space distance between geometric entities at asserted c
onnectivities');
#622=(
GEOMETRIC_REPRESENTATION_CONTEXT(3)
GLOBAL_UNCERTAINTY_ASSIGNED_CONTEXT((#620))
GLOBAL_UNIT_ASSIGNED_CONTEXT((#624,#626,#627))
REPRESENTATION_CONTEXT('','3D')
);
#623=(
GEOMETRIC_REPRESENTATION_CONTEXT(3)
GLOBAL_UNCERTAINTY_ASSIGNED_CONTEXT((#621))
GLOBAL_UNIT_ASSIGNED_CONTEXT((#624,#626,#627))
REPRESENTATION_CONTEXT('','3D')
);
#624=(
LENGTH_UNIT()
NAMED_UNIT(*)
SI_UNIT(.MILLI.,.METRE.)
);
#625=(
LENGTH_UNIT()
NAMED_UNIT(*)
SI_UNIT($,.METRE.)
);
#626=(
NAMED_UNIT(*)
PLANE_ANGLE_UNIT()
SI_UNIT($,.RADIAN.)
);
#627=(
NAMED_UNIT(*)
SI_UNIT($,.STERADIAN.)
SOLID_ANGLE_UNIT()
);
#628=SHAPE_DEFINITION_REPRESENTATION(#629,#630);
#629=PRODUCT_DEFINITION_SHAPE('',$,#632);
#630=SHAPE_REPRESENTATION('',(#380),#622);
#631=PRODUCT_DEFINITION_CONTEXT('part definition',#636,'design');
#632=PRODUCT_DEFINITION('ESP32 GPS NTP','ESP32 GPS NTP v16',#633,#631);
#633=PRODUCT_DEFINITION_FORMATION('',$,#638);
#634=PRODUCT_RELATED_PRODUCT_CATEGORY('ESP32 GPS NTP v16',
'ESP32 GPS NTP v16',(#638));
#635=APPLICATION_PROTOCOL_DEFINITION('international standard',
'automotive_design',2009,#636);
#636=APPLICATION_CONTEXT(
'Core Data for Automotive Mechanical Design Process');
#637=PRODUCT_CONTEXT('part definition',#636,'mechanical');
#638=PRODUCT('ESP32 GPS NTP','ESP32 GPS NTP v16',$,(#637));
#639=PRESENTATION_STYLE_ASSIGNMENT((#640));
#640=SURFACE_STYLE_USAGE(.BOTH.,#641);
#641=SURFACE_SIDE_STYLE('',(#642));
#642=SURFACE_STYLE_FILL_AREA(#643);
#643=FILL_AREA_STYLE('Steel - Satin',(#644));
#644=FILL_AREA_STYLE_COLOUR('Steel - Satin',#645);
#645=COLOUR_RGB('Steel - Satin',0.627450980392157,0.627450980392157,0.627450980392157);
ENDSEC;
END-ISO-10303-21;
